<?xml version="1.0" standalone="no"?>
<!DOCTYPE svg PUBLIC "-//W3C//DTD SVG 20010904//EN"
 "http://www.w3.org/TR/2001/REC-SVG-20010904/DTD/svg10.dtd">
<svg version="1.0" xmlns="http://www.w3.org/2000/svg"
 width="605.000000pt" height="482.000000pt" viewBox="0 0 605.000000 482.000000"
 preserveAspectRatio="xMidYMid meet">

<g transform="translate(0.000000,482.000000) scale(0.100000,-0.100000)"
fill="#4A6B4A" stroke="none">
<path d="M2830 4543 c-456 -44 -888 -225 -1235 -516 -323 -271 -571 -648 -664
-1013 -10 -37 -16 -43 -83 -74 -56 -26 -92 -54 -154 -115 -168 -167 -243 -360
-244 -624 0 -115 -2 -126 -24 -155 -61 -80 -111 -220 -122 -339 -8 -94 8 -189
48 -286 51 -121 170 -229 292 -266 36 -11 40 -16 53 -66 33 -130 104 -218 221
-276 69 -35 84 -38 173 -41 110 -4 188 13 248 54 l36 24 39 -48 c66 -80 206
-210 308 -288 597 -450 1450 -561 2139 -279 208 85 362 174 524 300 79 62 237
218 286 283 l25 33 75 -38 c74 -38 75 -38 194 -38 115 0 123 1 188 33 76 37
153 109 193 180 15 26 29 49 31 51 2 2 28 8 59 12 170 23 324 179 365 369 17
77 6 266 -21 360 -30 106 -109 253 -188 351 -160 197 -399 339 -572 339 -49 0
-61 -4 -74 -22 -42 -60 -4 -127 91 -163 262 -98 452 -285 532 -523 65 -191 37
-374 -69 -465 -37 -32 -86 -54 -96 -44 -2 2 -9 30 -15 63 -52 284 -362 434
-628 303 -198 -98 -291 -344 -209 -553 l19 -50 -98 -98 c-354 -357 -769 -552
-1277 -598 -274 -25 -625 25 -877 125 -303 121 -538 282 -756 518 -52 55 -53
58 -39 85 53 104 44 274 -21 394 -133 244 -474 299 -684 110 -46 -41 -119
-164 -119 -199 0 -21 -86 43 -121 91 -53 72 -71 139 -67 241 5 105 32 180 100
278 l42 62 7 155 c5 136 10 165 36 240 57 167 159 279 325 359 l96 46 22 85
c88 335 306 666 599 912 401 335 864 495 1371 475 392 -17 740 -139 1093 -387
131 -92 370 -335 475 -481 45 -64 82 -122 82 -129 0 -8 -10 -24 -21 -36 -14
-15 -22 -37 -23 -64 -1 -35 4 -47 32 -71 40 -36 94 -39 154 -8 l41 21 91 -91
c57 -57 99 -91 112 -91 28 0 74 37 74 58 0 10 -32 49 -71 87 -39 39 -83 86
-99 106 l-29 36 30 22 31 23 93 -91 c76 -75 98 -91 123 -91 21 0 36 7 46 22
27 39 19 62 -41 119 -31 30 -74 72 -95 95 l-38 41 20 38 c29 57 25 82 -18 126
-55 54 -81 58 -140 20 -27 -17 -52 -31 -57 -31 -4 0 -22 10 -39 23 -17 12 -43
28 -57 34 -15 6 -70 63 -122 126 -387 461 -957 761 -1552 817 -103 9 -295 11
-375 3z m-1639 -3093 c49 -14 113 -71 138 -125 28 -59 29 -160 2 -213 -60
-119 -208 -172 -317 -114 -52 27 -111 94 -124 141 -54 196 109 364 301 311z
m3875 -14 c88 -41 138 -125 135 -228 -2 -126 -108 -231 -231 -231 -140 0 -239
101 -240 242 0 80 25 137 83 186 70 60 165 72 253 31z"/>
<path d="M2733 3900 c-502 -97 -924 -412 -1145 -856 -232 -465 -235 -1021 -9
-1472 238 -474 602 -757 1121 -874 94 -21 129 -23 335 -23 253 1 343 14 529
76 550 183 957 663 1077 1269 19 93 23 147 23 285 0 193 -12 282 -59 445 -167
581 -637 1005 -1262 1141 -146 31 -468 36 -610 9z m0 -255 c-2 -22 -15 -74
-29 -115 -28 -77 -28 -107 -1 -144 13 -17 16 -17 44 -3 45 24 147 93 161 109
6 8 18 42 26 75 17 76 21 82 62 99 51 21 104 17 206 -16 173 -56 214 -97 163
-164 l-26 -35 -37 42 c-41 46 -63 66 -74 67 -14 0 -9 -30 12 -69 17 -34 27
-98 20 -126 -7 -27 3 -49 36 -79 28 -26 35 -38 29 -55 -8 -26 -31 -27 -70 -1
-39 26 -49 25 -81 -7 -18 -18 -28 -41 -32 -70 -4 -37 -8 -43 -28 -43 -25 0
-64 31 -64 51 0 6 13 23 29 38 62 58 58 166 -7 200 -28 15 -52 10 -196 -35
-59 -19 -118 -34 -129 -34 -11 0 -42 -18 -68 -40 -26 -22 -52 -40 -57 -40 -5
0 -15 21 -21 46 -7 26 -27 67 -46 91 -24 32 -32 50 -26 62 16 32 7 66 -17 69
-26 4 -65 -25 -55 -41 4 -6 -4 -7 -23 -1 -50 15 -104 8 -130 -17 -29 -27 -30
-42 -4 -77 17 -23 18 -33 10 -62 -16 -56 -12 -97 16 -150 14 -28 24 -56 21
-64 -3 -7 -30 -27 -60 -44 -31 -17 -62 -41 -70 -52 -16 -23 -21 -20 -31 22
-11 49 -73 142 -125 189 -69 62 -68 81 7 151 129 119 303 221 474 277 115 37
126 39 163 38 29 -2 30 -4 28 -42z m1356 -314 c53 -53 125 -137 160 -186 70
-101 181 -316 184 -360 4 -52 -26 -42 -78 25 -50 65 -72 73 -90 32 -13 -31
-53 -25 -122 17 -57 35 -79 38 -105 14 -30 -27 -23 -68 22 -117 44 -47 47 -63
25 -106 -18 -35 -44 -44 -100 -35 -97 14 -115 -75 -42 -204 56 -99 62 -115 92
-249 24 -111 43 -152 92 -199 45 -43 30 -93 -64 -220 -64 -87 -83 -128 -83
-182 0 -86 -49 -164 -207 -331 -89 -93 -200 -174 -233 -168 -12 3 -15 22 -16
98 0 52 -4 147 -9 211 -7 105 -6 121 14 177 31 91 28 162 -9 229 -16 29 -30
66 -30 82 0 56 -17 58 -176 26 -130 -26 -149 -28 -191 -16 -64 17 -106 51
-134 108 -31 62 -32 188 -4 278 16 50 30 71 88 126 38 37 81 89 96 115 l26 49
70 7 c39 3 95 13 125 22 86 25 128 21 217 -21 96 -46 149 -50 188 -13 59 55
70 149 19 172 -32 15 -74 -3 -74 -32 0 -31 -43 -25 -80 11 -36 36 -35 60 3
117 37 55 86 82 161 89 102 9 99 38 -11 109 l-53 34 0 60 c0 79 19 121 84 190
53 56 86 106 86 134 0 19 21 26 44 13 11 -5 63 -53 115 -106z m-515 -413 c9
-12 16 -32 16 -44 0 -27 -43 -74 -68 -74 -34 0 -85 -26 -162 -84 -63 -47 -81
-56 -112 -54 -48 2 -53 18 -33 94 8 32 15 77 15 100 0 43 19 74 45 74 8 0 40
-11 72 -25 64 -29 84 -27 139 10 45 31 68 32 88 3z m772 -270 c63 -76 95 -190
95 -346 0 -252 -82 -509 -238 -747 -104 -158 -241 -300 -272 -280 -5 3 11 40
36 82 105 179 313 602 313 638 0 8 -27 53 -59 102 -107 159 -150 263 -103 246
9 -3 25 -13 35 -21 25 -22 105 -145 132 -204 27 -58 29 -55 46 77 15 113 6
238 -26 361 -14 52 -25 101 -25 109 0 26 37 16 66 -17z m-2491 -225 c19 -42
47 -91 60 -109 14 -18 25 -40 25 -48 0 -20 -29 -20 -54 -1 -25 19 -86 19 -111
1 -16 -11 -17 -18 -8 -42 6 -16 14 -57 17 -90 3 -34 11 -73 17 -87 10 -22 16
-24 54 -19 32 3 57 -2 100 -22 110 -50 225 -128 321 -216 72 -66 120 -101 182
-131 112 -56 125 -90 76 -204 -14 -33 -32 -82 -40 -109 -7 -26 -28 -78 -46
-115 -30 -60 -33 -73 -32 -153 2 -108 -1 -109 -112 -37 -100 64 -173 134 -234
225 -27 39 -91 119 -143 178 -129 147 -151 188 -151 291 0 44 4 118 9 166 8
85 7 85 -19 102 -27 18 -37 38 -76 147 -13 36 -40 85 -60 110 -20 25 -40 53
-44 63 -9 28 5 97 19 97 8 0 28 -18 45 -40 17 -22 36 -40 41 -40 6 0 17 17 25
38 27 68 39 85 69 104 17 10 31 18 32 18 1 0 18 -35 38 -77z"/>
</g>
</svg>
